<?xml version="1.0" standalone="no"?>
<!DOCTYPE svg PUBLIC "-//W3C//DTD SVG 20010904//EN"
 "http://www.w3.org/TR/2001/REC-SVG-20010904/DTD/svg10.dtd">
<svg version="1.0" xmlns="http://www.w3.org/2000/svg"
 width="700.000000pt" height="700.000000pt" viewBox="0 0 700.000000 700.000000"
 preserveAspectRatio="xMidYMid meet">
<metadata>
Created by potrace 1.14, written by Peter Selinger 2001-2017
</metadata>
<g transform="translate(0.000000,700.000000) scale(0.100000,-0.100000)"
fill="#000000" stroke="none">
<path d="M6470 6980 c-63 -10 -135 -21 -160 -25 -36 -5 -867 -124 -985 -140
-16 -3 -174 -25 -350 -50 -176 -25 -331 -48 -345 -50 -36 -5 -250 -36 -280
-40 -14 -2 -140 -20 -280 -40 -140 -20 -271 -38 -290 -41 -19 -3 -156 -23
-305 -44 -148 -22 -288 -43 -310 -46 -22 -3 -51 -7 -65 -9 -22 -3 -138 -20
-210 -30 -14 -2 -45 -6 -70 -10 -77 -11 -94 -14 -140 -20 -25 -3 -52 -8 -60
-10 -8 -2 -40 -6 -71 -10 -31 -3 -67 -8 -80 -10 -13 -3 -44 -7 -68 -10 -138
-17 -249 -38 -287 -54 -61 -28 -128 -93 -155 -154 l-24 -52 -3 -1888 -2 -1887
-68 34 c-91 46 -219 90 -327 112 -95 19 -312 25 -415 12 -541 -72 -984 -504
-1075 -1047 -14 -86 -15 -351 -1 -416 17 -76 58 -221 72 -254 46 -102 61 -131
97 -191 127 -208 300 -366 528 -481 42 -21 83 -39 91 -39 8 0 18 -4 23 -8 11
-10 106 -40 150 -48 17 -3 50 -10 75 -16 60 -14 310 -18 385 -7 145 22 280 66
415 134 218 110 439 338 548 565 46 96 80 184 83 212 0 4 5 22 10 40 5 18 12
47 14 63 2 17 9 59 13 95 6 37 10 785 9 1728 0 914 3 1665 6 1668 3 3 33 9 68
14 35 5 82 12 104 15 22 3 58 8 80 12 49 8 55 9 130 17 33 4 67 9 75 11 8 2
38 7 65 10 28 4 79 11 115 16 36 6 83 13 105 15 22 3 51 7 65 10 14 2 45 7 70
10 37 4 174 23 495 69 17 2 145 20 285 40 140 20 266 38 280 40 14 2 77 11
140 20 63 9 126 18 140 20 14 2 201 29 415 60 215 30 404 57 420 60 77 11 534
76 570 81 22 2 64 9 94 14 30 6 56 10 58 10 2 0 3 -466 3 -1035 l0 -1035 -62
35 c-84 46 -253 101 -363 119 -138 22 -328 19 -460 -9 -503 -104 -883 -484
-992 -995 -13 -64 -18 -126 -17 -250 0 -141 4 -181 27 -278 14 -62 33 -127 42
-144 8 -17 15 -35 15 -40 0 -18 79 -168 126 -239 27 -40 88 -115 137 -166 186
-195 400 -312 670 -370 85 -18 322 -25 422 -11 471 63 884 414 1029 875 28 90
31 104 47 208 16 110 15 5000 -1 5051 -28 85 -83 149 -165 191 -66 34 -170 38
-325 13z"/>
</g>
</svg>
